<svg width="24" height="24" viewBox="0 0 24 24" fill="none" xmlns="http://www.w3.org/2000/svg">
<path d="M6.93994 4.00002C6.93968 4.53046 6.72871 5.03906 6.35345 5.41394C5.97819 5.78883 5.46937 5.99929 4.93894 5.99902C4.40851 5.99876 3.89991 5.78779 3.52502 5.41253C3.15014 5.03727 2.93968 4.52846 2.93994 3.99802C2.94021 3.46759 3.15117 2.95899 3.52644 2.5841C3.9017 2.20922 4.41051 1.99876 4.94094 1.99902C5.47137 1.99929 5.97998 2.21026 6.35486 2.58552C6.72975 2.96078 6.94021 3.46959 6.93994 4.00002V4.00002ZM6.99994 7.48002H2.99994V20H6.99994V7.48002ZM13.3199 7.48002H9.33994V20H13.2799V13.43C13.2799 9.77002 18.0499 9.43002 18.0499 13.43V20H21.9999V12.07C21.9999 5.90002 14.9399 6.13002 13.2799 9.16002L13.3199 7.48002V7.48002Z" fill="white"/>
</svg>
