<svg width="24" height="24" viewBox="0 0 24 24" fill="none" xmlns="http://www.w3.org/2000/svg">
<path d="M20.1537 6.39316C18.0544 6.39316 16.3465 4.68524 16.3465 2.58594V2H12.0365V15.4518C12.0365 16.686 11.0323 17.69 9.79816 17.69C8.56403 17.69 7.56 16.686 7.56 15.4518C7.56 14.2176 8.56403 13.2135 9.79816 13.2135C10.1218 13.2135 10.3841 13.2135 10.3841 13.2135V8.90353C10.3841 8.90353 10.1218 8.90353 9.79816 8.90353C6.18747 8.90353 3.25 11.8412 3.25 15.4518C3.25 19.0625 6.18747 22 9.79816 22C13.4088 22 16.3465 19.0625 16.3465 15.4518V9.75681C17.5125 10.3786 18.8103 10.7032 20.1537 10.7032H20.7396V6.39316H20.1537Z" fill="white"/>
</svg>
